<?xml version="1.0" encoding="utf-8"?>
<!-- Generator: Adobe Illustrator 14.0.0, SVG Export Plug-In . SVG Version: 6.00 Build 43363)  -->
<!DOCTYPE svg PUBLIC "-//W3C//DTD SVG 1.1//EN" "http://www.w3.org/Graphics/SVG/1.1/DTD/svg11.dtd">
<svg version="1.1" id="レイヤー_1" xmlns="http://www.w3.org/2000/svg" xmlns:xlink="http://www.w3.org/1999/xlink" x="0px"
	 y="0px" width="16px" height="16px" viewBox="0 0 16 16" enable-background="new 0 0 16 16" xml:space="preserve">
<g>
	<g>
		<path d="M4.487,7.355L3.963,10.4c-0.084,0.486,0.242,0.949,0.729,1.033c0.195,0.033,0.396,0.002,0.572-0.092L8,9.906l0.151,0.079
			c0.356-0.28,0.799-0.454,1.287-0.454h2.451l-0.373-2.178L13.734,5.2c0.244-0.238,0.332-0.594,0.227-0.918
			c-0.107-0.323-0.387-0.559-0.723-0.609l-3.064-0.445L8.805,0.456C8.542,0.013,7.966-0.132,7.523,0.131
			C7.39,0.211,7.279,0.322,7.199,0.456L5.83,3.228L2.767,3.673c-0.489,0.068-0.83,0.519-0.762,1.008
			C2.033,4.878,2.126,5.061,2.27,5.2L4.487,7.355z M7.019,4.863L8,2.872l0.983,1.991l2.201,0.319l-1.59,1.55l0.377,2.188L8,7.889
			L6.035,8.921L6.41,6.732l-1.591-1.55L7.019,4.863z"/>
		<path d="M6.25,15.453c0-0.674,0.437-1.241,1.04-1.453H3v-1c0-0.553-0.447-1-1-1c-0.552,0-1,0.447-1,1v2c0,0.553,0.448,1,1,1h4.355
			C6.29,15.829,6.25,15.646,6.25,15.453z"/>
	</g>
	<path id="tab_1_" d="M15.453,14.906h-0.547v-3.281c0-0.604-0.49-1.094-1.094-1.094H9.438c-0.604,0-1.094,0.49-1.094,1.094v3.281
		H7.797c-0.303,0-0.547,0.244-0.547,0.547S7.494,16,7.797,16h7.656C15.755,16,16,15.756,16,15.453S15.755,14.906,15.453,14.906z"/>
</g>
</svg>
