<?xml version="1.0" encoding="utf-8"?>
<!-- Generator: Adobe Illustrator 14.0.0, SVG Export Plug-In . SVG Version: 6.00 Build 43363)  -->
<!DOCTYPE svg PUBLIC "-//W3C//DTD SVG 1.1//EN" "http://www.w3.org/Graphics/SVG/1.1/DTD/svg11.dtd">
<svg version="1.1" id="レイヤー_1" xmlns="http://www.w3.org/2000/svg" xmlns:xlink="http://www.w3.org/1999/xlink" x="0px"
	 y="0px" width="16px" height="16px" viewBox="0 0 16 16" enable-background="new 0 0 16 16" xml:space="preserve">
<g>
	<path fill="#FFFFFF" d="M8,1c3.865,0,7,3.134,7,7c0,3.865-3.135,7-7,7c-3.866,0-7-3.135-7-7C1,4.134,4.134,1,8,1 M8,0
		C3.589,0,0,3.589,0,8s3.589,8,8,8s8-3.589,8-8S12.411,0,8,0L8,0z"/>
	<path fill="#FFFFFF" d="M8,14.5c-3.584,0-6.5-2.916-6.5-6.5S4.416,1.5,8,1.5s6.5,2.916,6.5,6.5S11.584,14.5,8,14.5L8,14.5z"/>
	<path fill="#737373" d="M8,2c3.309,0,6,2.691,6,6s-2.691,6-6,6s-6-2.691-6-6S4.691,2,8,2 M8,1C4.134,1,1,4.134,1,8
		c0,3.865,3.134,7,7,7c3.865,0,7-3.135,7-7C15,4.134,11.865,1,8,1L8,1z"/>
</g>
<g>
	<circle fill="#FFFFFF" cx="8.02" cy="8" r="6.01"/>
	<g>
		<path fill="#737373" d="M10.972,5.08c-0.201,0.075-0.205-0.209-0.601-0.174c-0.198,0.017-0.275,0.074-0.3,0.299
			C10.048,5.431,9.746,5.23,9.421,5.23S9.22,5.505,9.297,5.73c0.076,0.225,0.325,0.2,0.523,0.115c0.201-0.085,0.127-0.39,0.302-0.29
			c0.177,0.1,0.201,0.326,0.551,0.275c0.349-0.05,0.399,0.05,0.569,0c0.173-0.05-0.17-0.25-0.045-0.375
			C11.321,5.33,11.173,5.005,10.972,5.08z"/>
		<path fill="#737373" d="M9.271,2.504c-0.125,0.35,0.149,0.375-0.3,0.5c-0.45,0.125-0.2,0.625-0.566,0.375
			c-0.366-0.25-0.285,0.2-0.309,0.35c-0.025,0.15-0.5-0.05-0.997,0c-0.495,0.05-0.055,0.6-0.005,0.8c0.051,0.2-0.275,0-0.65-0.226
			C6.07,4.08,5.994,4.429,5.669,4.605C5.344,4.78,4.894,4.48,4.969,4.73c0.075,0.25-0.036,0.216-0.25,0.675
			C4.544,5.78,4.794,6.056,5.07,6.381c0.274,0.326,0.825,0.25,1.125,0c0.3-0.25,0.375-0.475,0.45-0.676
			C6.72,5.505,6.72,5.355,7.02,5.28s0.075,0.15,0.451,0.525c0.374,0.375,0.6,0.075,1.075,0c0.475-0.076,0.125-0.201,0.5-0.4
			c0.375-0.201,0-0.3-0.15-0.4c-0.15-0.099-0.1-0.375,0.1-0.525s-0.1-0.3,0-0.475c0.1-0.176,0.35,0.075,0.75,0.025
			c0.399-0.05,0.725-0.101,0.978,0.1c0.248,0.2,0.598,0.475,0.948,0.425s0.1-0.25-0.176-0.475c-0.275-0.225,0.051-0.125,0-0.55
			c-0.048-0.425-0.95-0.175-1.049-0.375c-0.074-0.149-0.177-0.495-0.321-0.774c-0.21-0.081-0.428-0.148-0.652-0.204
			C9.39,2.264,9.314,2.38,9.271,2.504z"/>
		<path fill="#737373" d="M7.864,12.133c0.068,0,0.181-0.276,0.388-0.226c0.206,0.053,0.369,0.226,0.152,0.5
			c-0.217,0.276,0.716,0.325,1.042,0.252c0.326-0.074,0.425-0.302,0-0.676c-0.426-0.376-0.451,0.075-0.675-0.1
			c-0.226-0.178,0.1-0.276-0.12-0.45c-0.221-0.177-0.356-0.101-0.632,0.023c-0.276,0.127-0.224,0.175-0.499,0
			c-0.275-0.175-0.049-0.475,0.175-0.475c0.225,0,0.25,0.226,0.557,0.216c0.306-0.01,0.068-0.19,0.152-0.416
			c0.083-0.226,0.316,0.076,0.441,0.275c0.125,0.201,0.275,0.174,0.575,0c0.301-0.175,0.476-0.101,0.83-0.101s0.072-0.3,0-0.551
			c-0.072-0.249-0.155-0.399,0-0.599c0.153-0.201-0.028-0.45-0.28-0.426C9.722,9.407,9.622,9.758,9.37,9.307
			c-0.25-0.45-0.45-0.175-0.524,0.125c-0.074,0.299-0.326-0.5-0.441-0.15C8.289,9.633,8.096,9.307,7.864,9.458
			c-0.231,0.148-0.594,0.175-0.344,0c0.25-0.177,0.125-0.551-0.075-0.626c-0.2-0.075-0.024-0.226,0.174-0.35
			c0.201-0.125,0.351-0.601,0-0.675c-0.35-0.076-0.45,0.375-0.542,0.7C6.986,8.832,6.745,8.356,6.626,8.156
			c-0.118-0.2,0.119-0.375,0-0.425C6.508,7.682,6.57,7.557,6.82,7.481c0.25-0.075,0.2-0.399,0.258-0.45
			c0.058-0.05,0.317-0.45,0-0.65c-0.317-0.2-0.058,0.325-0.283,0.217C6.57,6.489,6.199,6.83,6.02,7.156
			c-0.114,0.207-0.1,0.225-0.35,0.05c-0.25-0.176-0.3,0.075-0.701,0.475c-0.4,0.399-0.375-0.125-0.125-0.425
			c0.251-0.301,0.25-0.65-0.35-0.775c-0.6-0.125-1.301,0.35-1.325,0.625C3.144,7.38,3.019,7.331,2.818,7.557
			c-0.2,0.225,0.3,0.675,0.076,0.7c-0.226,0.025-0.15,0.375-0.125,0.65c0.025,0.275,0.3,0.375,0.45,0.475
			c0.15,0.1-0.2,0.274-0.049,0.45c0.149,0.177,0.299,0.274,0.249,0.625c-0.05,0.352-0.649-0.699-0.95-1.3
			c-0.3-0.601-0.2-1.051-0.15-1.526c0.028-0.267-0.132-0.65-0.245-0.457C2.036,7.445,2.01,7.719,2.01,8
			c0,2.167,1.15,4.06,2.87,5.118c0.202,0.039,0.22-0.131,0.514-0.086c0.325,0.051,0.275,0.051,0.426,0.347
			c0.15,0.298,0.524,0.306,0.7,0c0.175-0.304,0.225-0.121,0.558-0.021c0.333,0.102,0.468-0.15,0.317-0.469
			c-0.15-0.32,0.225-0.055,0.469-0.005c0.244,0.049-0.094-0.35-0.194-0.601C7.57,12.031,7.795,12.133,7.864,12.133z"/>
		<path fill="#737373" d="M7.095,2.528c0.022,0.177,0,0.15,0.176,0.351c0.175,0.2,0.675,0.05,1.134,0
			c0.458-0.05,0.166-0.226,0-0.625C8.356,2.137,8.284,2.06,8.202,2C8.141,1.998,8.081,1.991,8.019,1.991
			c-0.311,0-0.613,0.031-0.911,0.077C7.078,2.194,7.073,2.351,7.095,2.528z"/>
		<path fill="#737373" d="M2.668,6.056c-0.113,0.253-0.075,0.275,0,0.542s0.275-0.417,0.633-0.542
			C3.659,5.93,3.818,5.581,3.744,5.063c-0.076-0.517,0.375-0.859,0.1-0.984C3.568,3.954,2.991,5.329,2.668,6.056z"/>
	</g>
</g>
</svg>
