<!-- This Source Code Form is subject to the terms of the Mozilla Public
   - License, v. 2.0. If a copy of the MPL was not distributed with this
   - file, You can obtain one at http://mozilla.org/MPL/2.0/. -->
<svg version="1.1" xmlns="http://www.w3.org/2000/svg" x="0px"
	 y="0px" width="16px" height="16px" viewBox="0 0 16 16" enable-background="new 0 0 16 16" xml:space="preserve">
<path display="none" d="M8,12c-0.265,0-0.52-0.105-0.707-0.293l-5-5C1.909,6.31,1.92,5.677,2.317,5.293
	c0.388-0.375,1.002-0.375,1.39,0L8,9.586l4.293-4.293c0.397-0.384,1.03-0.373,1.414,0.024c0.374,0.388,0.374,1.002,0,1.39l-5,5
	C8.52,11.895,8.265,12,8,12z"/>
<path d="M8,9.219c-0.265,0-0.52-0.105-0.707-0.293l-5-5C1.909,3.528,1.92,2.896,2.317,2.512c0.388-0.375,1.002-0.375,1.39,0L8,6.805
	l4.293-4.293c0.397-0.384,1.03-0.373,1.414,0.024c0.374,0.388,0.374,1.002,0,1.39l-5,5C8.52,9.113,8.265,9.219,8,9.219z"/>
<path d="M8,14.813c-0.265,0-0.52-0.105-0.707-0.293l-5-5C1.909,9.122,1.92,8.489,2.317,8.105c0.388-0.375,1.002-0.375,1.39,0
	L8,12.398l4.293-4.293c0.397-0.384,1.03-0.373,1.414,0.024c0.374,0.388,0.374,1.002,0,1.39l-5,5C8.52,14.707,8.265,14.813,8,14.813z
	"/>
</svg>
