<?xml version="1.0" encoding="utf-8"?>
<!-- Generator: Adobe Illustrator 14.0.0, SVG Export Plug-In . SVG Version: 6.00 Build 43363)  -->
<!DOCTYPE svg PUBLIC "-//W3C//DTD SVG 1.1//EN" "http://www.w3.org/Graphics/SVG/1.1/DTD/svg11.dtd">
<svg version="1.1" id="レイヤー_1" xmlns="http://www.w3.org/2000/svg" xmlns:xlink="http://www.w3.org/1999/xlink" x="0px"
	 y="0px" width="16px" height="16px" viewBox="0 0 16 16" enable-background="new 0 0 16 16" xml:space="preserve">
<g>
	<g>
		<path d="M6.323,15H5.671c-0.66,0-1.22-0.417-1.442-1H3v-1c0-0.04-0.018-0.073-0.022-0.111c-0.395-0.158-0.708-0.472-0.866-0.866
			C2.073,12.018,2.039,12,2,12c-0.552,0-1,0.447-1,1v2c0,0.553,0.448,1,1,1h4.355C6.29,15.829,6.25,15.646,6.25,15.453
			C6.25,15.295,6.278,15.144,6.323,15z"/>
		<path d="M13.961,4.282c-0.107-0.323-0.387-0.559-0.723-0.609l-3.064-0.445L8.805,0.456C8.542,0.013,7.966-0.132,7.523,0.131
			C7.39,0.211,7.279,0.322,7.199,0.456L5.83,3.228L2.767,3.673c-0.489,0.068-0.83,0.519-0.762,1.008
			C2.033,4.878,2.126,5.061,2.27,5.2L3.5,6.396c0.38-0.519,0.988-0.861,1.678-0.864l-0.359-0.35l2.2-0.319L8,2.872l0.983,1.991
			l2.201,0.319l-0.627,0.612c0.547,0.298,0.947,0.826,1.063,1.459L13.734,5.2C13.979,4.962,14.066,4.606,13.961,4.282z"/>
	</g>
	<path d="M5.219,11.974V9.625c0-1.154,0.939-2.094,2.094-2.094h3.325c-0.05-0.558-0.505-1-1.075-1H5.188
		c-0.604,0-1.094,0.49-1.094,1.094v3.281H3.546C3.245,10.906,3,11.15,3,11.453S3.245,12,3.546,12h1.619
		C5.184,11.993,5.199,11.979,5.219,11.974z"/>
	<path d="M7.344,13.974v-2.349c0-1.154,0.939-2.094,2.094-2.094h3.325c-0.05-0.558-0.505-1-1.075-1H7.313
		c-0.604,0-1.094,0.49-1.094,1.094v3.281H5.671c-0.302,0-0.547,0.244-0.547,0.547S5.37,14,5.671,14H7.29
		C7.309,13.993,7.324,13.979,7.344,13.974z"/>
	<path id="tab_7_" d="M15.453,14.906h-0.547v-3.281c0-0.604-0.49-1.094-1.094-1.094H9.438c-0.604,0-1.094,0.49-1.094,1.094v3.281
		H7.797c-0.303,0-0.547,0.244-0.547,0.547S7.494,16,7.797,16h7.656C15.755,16,16,15.756,16,15.453S15.755,14.906,15.453,14.906z"/>
</g>
</svg>
