<?xml version="1.0" encoding="utf-8"?>
<!-- Generator: Adobe Illustrator 14.0.0, SVG Export Plug-In . SVG Version: 6.00 Build 43363)  -->
<!DOCTYPE svg PUBLIC "-//W3C//DTD SVG 1.1//EN" "http://www.w3.org/Graphics/SVG/1.1/DTD/svg11.dtd">
<svg version="1.1" id="レイヤー_1" xmlns="http://www.w3.org/2000/svg" xmlns:xlink="http://www.w3.org/1999/xlink" x="0px"
	 y="0px" width="16px" height="16px" viewBox="0 0 16 16" enable-background="new 0 0 16 16" xml:space="preserve">
<g>
	<path d="M7.343,13.974V12H3c-0.552,0-1-0.447-1-1V5h12v4.55c1.065,0.097,1.906,0.985,1.906,2.075v0.949
		C15.961,12.391,16,12.201,16,12V3c0-1.657-1.344-3-3-3H3C1.343,0,0,1.343,0,3v8c0,1.656,1.344,3,3,3h4.29
		C7.309,13.993,7.324,13.979,7.343,13.974z M2,3c0-0.552,0.448-1,1-1h10c0.553,0,1,0.448,1,1v1H2V3z"/>
	<path id="tab_1_" d="M15.453,14.906h-0.547v-3.281c0-0.604-0.49-1.094-1.094-1.094H9.438c-0.604,0-1.094,0.49-1.094,1.094v3.281
		H7.796c-0.302,0-0.547,0.244-0.547,0.547S7.495,16,7.796,16h7.657C15.755,16,16,15.756,16,15.453S15.755,14.906,15.453,14.906z"/>
</g>
</svg>
