<?xml version="1.0" encoding="utf-8"?>
<!-- Generator: Adobe Illustrator 14.0.0, SVG Export Plug-In . SVG Version: 6.00 Build 43363)  -->
<!DOCTYPE svg PUBLIC "-//W3C//DTD SVG 1.1//EN" "http://www.w3.org/Graphics/SVG/1.1/DTD/svg11.dtd">
<svg version="1.1" id="レイヤー_1" xmlns="http://www.w3.org/2000/svg" xmlns:xlink="http://www.w3.org/1999/xlink" x="0px"
	 y="0px" width="16px" height="16px" viewBox="0 0 16 16" enable-background="new 0 0 16 16" xml:space="preserve">
<g>
	<path fill="#0C0C0D" d="M12,1H4C2.346,1,1,2.346,1,4v8c0,1.654,1.346,3,3,3h8c1.654,0,3-1.346,3-3V4C15,2.346,13.654,1,12,1z M3,4
		c0-0.551,0.449-1,1-1h8c0.552,0,1,0.449,1,1v2H4C3.5,6,3,5.5,3,5V4z M7,10c-0.5,0-1-0.5-1-1H5.99V7H13v3H7z M12,13h-2
		c-0.5,0-1-0.5-1-1v-1h4v1C13,12.552,12.552,13,12,13z"/>
	<circle fill="#0C0C0D" cx="4.5" cy="4.5" r="0.5"/>
	<circle fill="#0C0C0D" cx="7.5" cy="8.5" r="0.5"/>
	<circle fill="#0C0C0D" cx="10.5" cy="12" r="0.5"/>
</g>
</svg>
