<?xml version="1.0" encoding="utf-8"?>
<!-- Generator: Adobe Illustrator 14.0.0, SVG Export Plug-In . SVG Version: 6.00 Build 43363)  -->
<!DOCTYPE svg PUBLIC "-//W3C//DTD SVG 1.1//EN" "http://www.w3.org/Graphics/SVG/1.1/DTD/svg11.dtd">
<svg version="1.1" id="レイヤー_1" xmlns="http://www.w3.org/2000/svg" xmlns:xlink="http://www.w3.org/1999/xlink" x="0px"
	 y="0px" width="20px" height="20px" viewBox="0 0 20 20" enable-background="new 0 0 20 20" xml:space="preserve">
<g>
	<path fill="#0C0C0D" d="M16,1H4C2.346,1,1,2.346,1,4v12c0,1.654,1.346,3,3,3h12c1.654,0,3-1.346,3-3V4C19,2.346,17.654,1,16,1z
		 M8,12c-0.5,0-1-0.5-1-1V8h10v4H8z M3,4c0-0.551,0.449-1,1-1h12c0.552,0,1,0.449,1,1v3H4C3.5,7,3,6.5,3,6V4z M16,17h-4
		c-0.5,0-1-0.5-1-1v-3h6v3C17,16.552,16.552,17,16,17z"/>
	<circle fill="#0C0C0D" cx="5" cy="5" r="1"/>
	<circle fill="#0C0C0D" cx="9" cy="10" r="1"/>
	<circle fill="#0C0C0D" cx="13" cy="15" r="1"/>
</g>
</svg>
