<?xml version="1.0" encoding="utf-8"?>
<!-- Generator: Adobe Illustrator 14.0.0, SVG Export Plug-In . SVG Version: 6.00 Build 43363)  -->
<!DOCTYPE svg PUBLIC "-//W3C//DTD SVG 1.1//EN" "http://www.w3.org/Graphics/SVG/1.1/DTD/svg11.dtd">
<svg version="1.1" id="レイヤー_1" xmlns="http://www.w3.org/2000/svg" xmlns:xlink="http://www.w3.org/1999/xlink" x="0px"
	 y="0px" width="24px" height="24px" viewBox="0 0 24 24" enable-background="new 0 0 24 24" xml:space="preserve">
<g>
	<path fill="#0C0C0D" d="M20,1H4C2.346,1,1,2.346,1,4v16c0,1.654,1.346,3,3,3h16c1.654,0,3-1.346,3-3V4C23,2.346,21.654,1,20,1z
		 M9,15c-0.5,0-1-0.5-1-1v-4h13v5H9z M3,4c0-0.551,0.449-1,1-1h16c0.552,0,1,0.449,1,1v5H4C3.5,9,3,8.5,3,8V4z M20,21h-6
		c-0.5,0-1-0.5-1-1v-4h8v4C21,20.552,20.552,21,20,21z"/>
	<circle fill="#0C0C0D" cx="6" cy="6" r="1"/>
	<circle fill="#0C0C0D" cx="11" cy="12.375" r="1"/>
	<circle fill="#0C0C0D" cx="16" cy="18.5" r="1"/>
</g>
</svg>
